<svg xmlns="http://www.w3.org/2000/svg" width="980" height="700" viewBox="0 0 980 700" font-family="-apple-system, 'Segoe UI', Helvetica, Arial, sans-serif">
  <defs>
    <marker id="arrow" viewBox="0 0 10 10" refX="9" refY="5" markerWidth="7" markerHeight="7" orient="auto-start-reverse">
      <path d="M0,0 L10,5 L0,10 z" fill="#475569"/>
    </marker>
  </defs>

  <rect width="980" height="700" fill="#ffffff"/>
  <text x="30" y="34" font-size="18" font-weight="700" fill="#0f172a">FinQuery Approach A: Vanilla RAG baseline</text>
  <text x="30" y="54" font-size="12" fill="#475569">One retrieval, one LLM call, no tools. Hypothesis under test: fails on aggregation questions.</text>

  <!-- ======================= LANE 1: INGEST ======================= -->
  <rect x="20" y="70" width="940" height="256" rx="10" fill="#f8fafc" stroke="#e2e8f0"/>
  <text x="36" y="92" font-size="11" font-weight="700" letter-spacing="1" fill="#64748b">1. INGEST TIME (OFFLINE, BEFORE ANY QUESTION)</text>

  <!-- KB path -->
  <rect x="40" y="110" width="160" height="56" rx="8" fill="#ffffff" stroke="#64748b"/>
  <text x="120" y="133" font-size="12" font-weight="600" fill="#1e293b" text-anchor="middle">kb/ markdown</text>
  <text x="120" y="150" font-size="10.5" fill="#475569" text-anchor="middle">17 articles + 5 booklets</text>

  <line x1="200" y1="138" x2="238" y2="138" stroke="#475569" stroke-width="1.5" marker-end="url(#arrow)"/>

  <rect x="240" y="104" width="180" height="68" rx="8" fill="#ffffff" stroke="#64748b"/>
  <text x="330" y="127" font-size="12" font-weight="600" fill="#1e293b" text-anchor="middle">Chunker</text>
  <text x="330" y="143" font-size="10.5" fill="#475569" text-anchor="middle">retrieval/chunking.py</text>
  <text x="330" y="158" font-size="10.5" fill="#475569" text-anchor="middle">~400 tokens, 15% overlap</text>

  <line x1="420" y1="138" x2="676" y2="152" stroke="#475569" stroke-width="1.5" marker-end="url(#arrow)"/>

  <!-- Transactions path -->
  <rect x="40" y="230" width="160" height="56" rx="8" fill="#ffffff" stroke="#64748b"/>
  <text x="120" y="253" font-size="12" font-weight="600" fill="#1e293b" text-anchor="middle">transactions table</text>
  <text x="120" y="270" font-size="10.5" fill="#475569" text-anchor="middle">synthetic seeded rows</text>

  <line x1="200" y1="258" x2="238" y2="258" stroke="#475569" stroke-width="1.5" marker-end="url(#arrow)"/>

  <rect x="240" y="230" width="150" height="56" rx="8" fill="#ffffff" stroke="#64748b"/>
  <text x="315" y="253" font-size="12" font-weight="600" fill="#1e293b" text-anchor="middle">Serializer</text>
  <text x="315" y="270" font-size="10.5" fill="#475569" text-anchor="middle">each txn to a text line</text>

  <line x1="390" y1="258" x2="428" y2="258" stroke="#475569" stroke-width="1.5" marker-end="url(#arrow)"/>

  <rect x="430" y="226" width="170" height="64" rx="8" fill="#fef3c7" stroke="#d97706"/>
  <text x="515" y="248" font-size="12" font-weight="600" fill="#78350f" text-anchor="middle">PII gate (pii/)</text>
  <text x="515" y="264" font-size="10.5" fill="#78350f" text-anchor="middle">pseudonymize before</text>
  <text x="515" y="278" font-size="10.5" fill="#78350f" text-anchor="middle">storage and embedding</text>

  <line x1="600" y1="258" x2="676" y2="242" stroke="#475569" stroke-width="1.5" marker-end="url(#arrow)"/>

  <!-- Postgres container -->
  <rect x="660" y="100" width="290" height="212" rx="10" fill="#eff6ff" stroke="#3b82f6"/>
  <text x="805" y="122" font-size="11.5" font-weight="700" fill="#1d4ed8" text-anchor="middle">Postgres + pgvector (one instance)</text>

  <rect x="680" y="132" width="250" height="50" rx="6" fill="#ffffff" stroke="#93c5fd"/>
  <text x="805" y="152" font-size="11.5" font-weight="600" fill="#1e293b" text-anchor="middle">kb_chunks</text>
  <text x="805" y="168" font-size="10" fill="#475569" text-anchor="middle">354 chunks, embedding + tsv</text>

  <rect x="680" y="192" width="250" height="50" rx="6" fill="#ffffff" stroke="#93c5fd"/>
  <text x="805" y="212" font-size="11.5" font-weight="600" fill="#1e293b" text-anchor="middle">rag_transaction_chunks</text>
  <text x="805" y="228" font-size="10" fill="#475569" text-anchor="middle">pseudonymized text + embedding</text>

  <rect x="680" y="252" width="250" height="46" rx="6" fill="none" stroke="#94a3b8" stroke-dasharray="4 3"/>
  <text x="805" y="271" font-size="10" fill="#64748b" text-anchor="middle">embedding column backfilled by OpenAI</text>
  <text x="805" y="285" font-size="10" fill="#64748b" text-anchor="middle">text-embedding-3-small (key-dependent)</text>

  <!-- ======================= LANE 2: QUERY ======================= -->
  <rect x="20" y="346" width="940" height="310" rx="10" fill="#f8fafc" stroke="#e2e8f0"/>
  <text x="36" y="368" font-size="11" font-weight="700" letter-spacing="1" fill="#64748b">2. QUERY TIME (PER QUESTION, SINGLE TURN)</text>

  <rect x="40" y="392" width="140" height="56" rx="8" fill="#ffffff" stroke="#64748b"/>
  <text x="110" y="415" font-size="12" font-weight="600" fill="#1e293b" text-anchor="middle">User question</text>
  <text x="110" y="432" font-size="10.5" fill="#475569" text-anchor="middle">chat UI or POST /ask</text>

  <line x1="180" y1="420" x2="218" y2="420" stroke="#475569" stroke-width="1.5" marker-end="url(#arrow)"/>

  <rect x="220" y="392" width="130" height="56" rx="8" fill="#ffffff" stroke="#64748b"/>
  <text x="285" y="415" font-size="12" font-weight="600" fill="#1e293b" text-anchor="middle">FastAPI /ask</text>
  <text x="285" y="432" font-size="10.5" fill="#475569" text-anchor="middle">mode=vanilla_rag</text>

  <line x1="350" y1="420" x2="388" y2="420" stroke="#475569" stroke-width="1.5" marker-end="url(#arrow)"/>

  <rect x="390" y="392" width="160" height="56" rx="8" fill="#ffffff" stroke="#64748b"/>
  <text x="470" y="415" font-size="12" font-weight="600" fill="#1e293b" text-anchor="middle">Embed the question</text>
  <text x="470" y="432" font-size="10.5" fill="#475569" text-anchor="middle">same embedding model</text>

  <line x1="550" y1="420" x2="588" y2="420" stroke="#475569" stroke-width="1.5" marker-end="url(#arrow)"/>

  <rect x="590" y="388" width="190" height="64" rx="8" fill="#ffffff" stroke="#64748b"/>
  <text x="685" y="411" font-size="12" font-weight="600" fill="#1e293b" text-anchor="middle">Top-k cosine search</text>
  <text x="685" y="427" font-size="10.5" fill="#475569" text-anchor="middle">exact flat scan over BOTH</text>
  <text x="685" y="441" font-size="10.5" fill="#475569" text-anchor="middle">chunk tables, no ANN index</text>

  <!-- search talks to Postgres above -->
  <line x1="685" y1="386" x2="685" y2="316" stroke="#3b82f6" stroke-width="1.5" stroke-dasharray="5 3" marker-end="url(#arrow)" marker-start="url(#arrow)"/>
  <text x="698" y="342" font-size="10" fill="#1d4ed8">ORDER BY embedding &lt;=&gt; query LIMIT k</text>

  <line x1="685" y1="452" x2="685" y2="512" stroke="#475569" stroke-width="1.5" marker-end="url(#arrow)"/>
  <text x="698" y="486" font-size="10" fill="#64748b">retrieved chunk text</text>

  <rect x="590" y="514" width="190" height="70" rx="8" fill="#ffffff" stroke="#64748b"/>
  <text x="685" y="536" font-size="12" font-weight="600" fill="#1e293b" text-anchor="middle">Prompt assembly</text>
  <text x="685" y="552" font-size="10.5" fill="#475569" text-anchor="middle">system + REFUSAL_CRITERIA</text>
  <text x="685" y="566" font-size="10.5" fill="#475569" text-anchor="middle">+ question + chunk text</text>

  <line x1="590" y1="549" x2="547" y2="549" stroke="#475569" stroke-width="1.5" marker-end="url(#arrow)"/>

  <rect x="385" y="514" width="160" height="70" rx="8" fill="#ecfdf5" stroke="#059669"/>
  <text x="465" y="536" font-size="12" font-weight="600" fill="#065f46" text-anchor="middle">gpt-4o-mini</text>
  <text x="465" y="552" font-size="10.5" fill="#065f46" text-anchor="middle">one call, no tools</text>
  <text x="465" y="566" font-size="10.5" fill="#065f46" text-anchor="middle">answers from chunk text alone</text>

  <line x1="385" y1="549" x2="342" y2="549" stroke="#475569" stroke-width="1.5" marker-end="url(#arrow)"/>

  <rect x="180" y="514" width="160" height="70" rx="8" fill="#ffffff" stroke="#64748b"/>
  <text x="260" y="536" font-size="12" font-weight="600" fill="#1e293b" text-anchor="middle">Answer + sources</text>
  <text x="260" y="552" font-size="10.5" fill="#475569" text-anchor="middle">chunk citations</text>
  <text x="260" y="566" font-size="10.5" fill="#475569" text-anchor="middle">(document, page_ref)</text>

  <!-- payload log -->
  <rect x="385" y="602" width="250" height="44" rx="6" fill="none" stroke="#d97706" stroke-dasharray="4 3"/>
  <text x="510" y="620" font-size="10" fill="#92400e" text-anchor="middle">llm_payload_log: every LLM-bound payload stored,</text>
  <text x="510" y="634" font-size="10" fill="#92400e" text-anchor="middle">scanned against pii_mappings for the 0% leakage eval</text>
  <line x1="600" y1="584" x2="600" y2="600" stroke="#d97706" stroke-width="1" stroke-dasharray="4 3"/>

  <!-- refusal note -->
  <rect x="40" y="602" width="300" height="44" rx="6" fill="none" stroke="#94a3b8" stroke-dasharray="4 3"/>
  <text x="190" y="620" font-size="10" fill="#64748b" text-anchor="middle">No "not found" branch: top-k always returns k chunks.</text>
  <text x="190" y="634" font-size="10" fill="#64748b" text-anchor="middle">Refusals come from the prompt criteria, not retrieval.</text>

  <text x="30" y="682" font-size="10.5" fill="#94a3b8">Weakness by design: an aggregation question retrieves at most k transaction chunks, so the LLM sums a partial list. The eval quantifies this.</text>
</svg>
